<?xml version="1.0" standalone="no"?>
<!DOCTYPE svg PUBLIC "-//W3C//DTD SVG 20010904//EN"
 "http://www.w3.org/TR/2001/REC-SVG-20010904/DTD/svg10.dtd">
<svg version="1.0" xmlns="http://www.w3.org/2000/svg"
 width="150.000000pt" height="150.000000pt" viewBox="0 0 150.000000 150.000000"
 preserveAspectRatio="xMidYMid meet">
<metadata>
Created by potrace 1.14, written by Peter Selinger 2001-2017
</metadata>
<g transform="translate(0.000000,150.000000) scale(0.100000,-0.100000)"
fill="#000000" stroke="none">
<path d="M608 1475 c-6 -14 -15 -25 -20 -25 -4 0 -8 -7 -8 -15 0 -8 -4 -15
-10 -15 -5 0 -10 -6 -10 -14 0 -8 -7 -16 -15 -20 -8 -3 -15 -10 -15 -17 0 -6
-10 -24 -22 -39 -13 -15 -30 -37 -38 -50 -8 -13 -25 -35 -37 -50 -20 -24 -34
-64 -17 -47 4 3 15 2 25 -4 13 -7 19 -6 19 1 0 6 4 8 10 5 5 -3 36 -7 69 -7
62 -2 77 8 121 72 8 13 24 31 34 41 11 11 17 19 14 19 -4 0 3 11 15 25 l22 25
42 -48 c24 -26 46 -51 50 -57 34 -45 62 -73 67 -68 3 4 6 1 6 -6 0 -7 4 -9 10
-6 15 9 91 12 96 4 2 -4 18 -4 34 1 19 5 30 5 30 -1 0 -6 4 -8 10 -4 12 7 1
36 -22 56 -10 9 -18 21 -18 28 0 6 -4 11 -9 11 -5 0 -14 12 -20 28 -6 15 -27
44 -46 65 -20 21 -33 43 -30 48 4 5 1 9 -4 9 -6 0 -23 18 -37 40 l-27 40 -129
0 c-127 0 -129 0 -140 -25z"/>
<path d="M635 1038 c-16 -4 -43 -9 -58 -10 -16 -1 -31 -6 -33 -10 -3 -5 -10
-6 -15 -3 -5 4 -9 1 -9 -4 0 -6 -7 -11 -16 -11 -54 0 -202 -133 -238 -213 -22
-51 -29 -71 -30 -87 0 -8 -5 -18 -10 -22 -24 -17 -16 -289 11 -358 4 -8 5 -18
5 -23 -1 -4 3 -7 9 -7 6 0 9 -6 6 -14 -3 -8 1 -20 9 -26 8 -7 14 -19 14 -27 0
-7 7 -16 15 -19 8 -4 15 -11 15 -17 0 -16 112 -117 130 -117 6 0 10 -4 10 -8
0 -5 6 -9 13 -10 6 -1 43 -12 80 -25 115 -41 359 -34 445 12 12 6 22 9 22 6 0
-2 9 3 20 13 12 9 25 17 30 17 17 0 106 84 136 127 16 24 33 46 39 50 5 4 6 8
2 8 -4 0 -2 10 4 23 32 58 48 152 45 262 -2 61 -6 121 -9 135 -11 44 -51 140
-59 140 -5 0 -8 5 -8 11 0 6 -6 16 -13 24 -7 7 -24 26 -38 42 -26 31 -111 93
-128 93 -6 0 -11 4 -11 8 0 5 -6 9 -12 10 -22 2 -43 7 -54 15 -31 19 -264 31
-319 15z m215 -249 c34 -12 60 -31 60 -44 0 -3 8 -15 19 -26 10 -11 22 -35 26
-52 4 -18 9 -39 11 -47 6 -24 5 -172 -1 -205 -4 -16 -10 -34 -15 -40 -4 -5 -9
-13 -9 -17 -8 -48 -71 -105 -126 -113 -62 -9 -125 -11 -125 -4 0 4 -13 9 -28
12 -36 7 -83 51 -105 100 -27 57 -39 172 -25 247 5 25 9 51 10 58 1 6 5 12 10
12 4 0 7 3 6 8 -9 30 73 110 120 118 8 1 16 5 19 8 9 9 117 -1 153 -15z"/>
</g>
</svg>
